  0
SECTION
  2
HEADER
  9
$ACADVER
  1
AC1009
  9
$EXTMIN
 10
0.0
 20
0.0
 30
0.0
  9
$EXTMAX
 10
1000.0
 20
1000.0
 30
0.0
  9
$FILLMODE
 70
 0
  9
$SPLFRAME
 70
 1
  0
ENDSEC
  0
SECTION
  2
TABLES
  0
TABLE
  2
LAYER
 70
1
  0
LAYER
  2
0
 70
     0
 62
     7
  6
CONTINUOUS
  0
ENDTAB
  0
ENDSEC
  0
SECTION
  2
ENTITIES
  0
LINE
  8
0
 62
     0
 10
0
 20
5.29167
 30
0.0
 11
-7.05556
 21
5.29167
 31
0.0
  0
LINE
  8
0
 62
     0
 10
-7.05556
 20
5.29167
 30
0.0
 11
-7.05556
 21
0
 31
0.0
  0
LINE
  8
0
 62
     0
 10
-7.05556
 20
0
 30
0.0
 11
-7.05556
 21
-5.29167
 31
0.0
  0
LINE
  8
0
 62
     0
 10
-7.05556
 20
-5.29167
 30
0.0
 11
0
 21
-5.29167
 31
0.0
  0
LINE
  8
0
 62
     0
 10
0
 20
-5.29167
 30
0.0
 11
7.05556
 21
-5.29167
 31
0.0
  0
LINE
  8
0
 62
     0
 10
7.05556
 20
-5.29167
 30
0.0
 11
7.05556
 21
0
 31
0.0
  0
LINE
  8
0
 62
     0
 10
7.05556
 20
0
 30
0.0
 11
7.05556
 21
5.29167
 31
0.0
  0
LINE
  8
0
 62
     0
 10
7.05556
 20
5.29167
 30
0.0
 11
0
 21
5.29167
 31
0.0
  0
LINE
  8
0
 62
     0
 10
0
 20
4.58611
 30
0.0
 11
6.35
 21
4.58611
 31
0.0
  0
LINE
  8
0
 62
     0
 10
6.35
 20
4.58611
 30
0.0
 11
6.35
 21
0
 31
0.0
  0
LINE
  8
0
 62
     0
 10
6.35
 20
0
 30
0.0
 11
6.35
 21
-4.58611
 31
0.0
  0
LINE
  8
0
 62
     0
 10
6.35
 20
-4.58611
 30
0.0
 11
0
 21
-4.58611
 31
0.0
  0
LINE
  8
0
 62
     0
 10
0
 20
-4.58611
 30
0.0
 11
-6.35
 21
-4.58611
 31
0.0
  0
LINE
  8
0
 62
     0
 10
-6.35
 20
-4.58611
 30
0.0
 11
-6.35
 21
0
 31
0.0
  0
LINE
  8
0
 62
     0
 10
-6.35
 20
0
 30
0.0
 11
-6.35
 21
4.58611
 31
0.0
  0
LINE
  8
0
 62
     0
 10
-6.35
 20
4.58611
 30
0.0
 11
0
 21
4.58611
 31
0.0
  0
LINE
  8
0
 62
     0
 10
-0.529167
 20
3.175
 30
0.0
 11
-0.705556
 21
3.175
 31
0.0
  0
LINE
  8
0
 62
     0
 10
-0.705556
 20
3.175
 30
0.0
 11
-0.705556
 21
2.99861
 31
0.0
  0
LINE
  8
0
 62
     0
 10
-0.705556
 20
2.99861
 30
0.0
 11
-0.705556
 21
2.82222
 31
0.0
  0
LINE
  8
0
 62
     0
 10
-0.705556
 20
2.82222
 30
0.0
 11
0.705556
 21
1.41111
 31
0.0
  0
LINE
  8
0
 62
     0
 10
0.705556
 20
1.41111
 30
0.0
 11
2.11667
 21
0
 31
0.0
  0
LINE
  8
0
 62
     0
 10
2.11667
 20
0
 30
0.0
 11
0.705556
 21
-1.41111
 31
0.0
  0
LINE
  8
0
 62
     0
 10
0.705556
 20
-1.41111
 30
0.0
 11
-0.705556
 21
-2.82222
 31
0.0
  0
LINE
  8
0
 62
     0
 10
-0.705556
 20
-2.82222
 30
0.0
 11
-0.529167
 21
-2.99861
 31
0.0
  0
LINE
  8
0
 62
     0
 10
-0.529167
 20
-2.99861
 30
0.0
 11
-0.352778
 21
-3.175
 31
0.0
  0
LINE
  8
0
 62
     0
 10
-0.352778
 20
-3.175
 30
0.0
 11
1.23472
 21
-1.5875
 31
0.0
  0
LINE
  8
0
 62
     0
 10
1.23472
 20
-1.5875
 30
0.0
 11
2.82222
 21
0
 31
0.0
  0
LINE
  8
0
 62
     0
 10
2.82222
 20
0
 30
0.0
 11
1.23472
 21
1.5875
 31
0.0
  0
LINE
  8
0
 62
     0
 10
1.23472
 20
1.5875
 30
0.0
 11
-0.352778
 21
3.175
 31
0.0
  0
LINE
  8
0
 62
     0
 10
-0.352778
 20
3.175
 30
0.0
 11
-0.529167
 21
3.175
 31
0.0
  0
ENDSEC
  0
EOF
